<?xml version="1.0" standalone="no"?>
<!DOCTYPE svg PUBLIC "-//W3C//DTD SVG 20010904//EN"
 "http://www.w3.org/TR/2001/REC-SVG-20010904/DTD/svg10.dtd">
<svg version="1.0" xmlns="http://www.w3.org/2000/svg"
 width="598.000000pt" height="598.000000pt" viewBox="0 0 598.000000 598.000000"
 preserveAspectRatio="xMidYMid meet">
<metadata>
Created by potrace 1.11, written by Peter Selinger 2001-2013
</metadata>
<g transform="translate(0.000000,598.000000) scale(0.100000,-0.100000)"
fill="#000000" stroke="none">
<path d="M299 5583 c-29 -26 -62 -55 -72 -64 -32 -29 -55 -108 -53 -182 l2
-67 -50 -29 c-87 -49 -116 -84 -116 -139 0 -37 18 -89 42 -125 17 -24 19 -39
14 -110 -6 -92 12 -181 45 -216 22 -24 24 -47 6 -58 -7 -4 -34 -40 -60 -79
-50 -76 -66 -148 -40 -182 7 -9 13 -24 13 -33 0 -9 11 -27 25 -40 31 -30 31
-36 -1 -100 -31 -60 -34 -111 -10 -157 13 -26 63 -64 86 -67 3 0 11 -4 18 -8
6 -5 29 -8 50 -8 122 -1 296 82 431 206 37 34 68 54 91 58 170 29 575 25 851
-9 63 -7 269 -35 298 -39 13 -3 44 -7 68 -11 23 -3 43 -10 43 -14 0 -4 -20
-26 -45 -49 -41 -38 -71 -88 -90 -151 -4 -14 -19 -50 -32 -80 -14 -30 -29 -64
-34 -75 -10 -22 -14 -43 -24 -128 -4 -31 -11 -60 -15 -62 -5 -3 -2 -30 6 -60
8 -30 12 -68 9 -85 -3 -17 -1 -38 4 -48 5 -9 10 -42 12 -72 2 -30 6 -59 10
-65 7 -10 18 -70 24 -130 2 -16 4 -31 5 -32 2 -2 3 -6 5 -10 1 -5 5 -16 8 -25
16 -42 20 -55 24 -87 2 -18 10 -46 18 -62 8 -15 20 -52 26 -81 9 -41 23 -67
63 -113 29 -33 58 -75 65 -93 8 -18 33 -54 57 -80 24 -26 44 -50 44 -54 0 -7
80 -131 98 -153 10 -12 66 -127 67 -137 0 -3 3 -10 8 -14 17 -18 87 -178 102
-236 10 -35 20 -70 23 -78 3 -8 6 -22 6 -31 1 -9 6 -27 12 -40 17 -34 36 -87
35 -94 -1 -3 6 -19 14 -35 8 -16 16 -33 16 -37 1 -5 5 -18 10 -31 5 -13 9 -28
9 -33 0 -5 6 -20 14 -32 8 -12 17 -33 20 -47 3 -14 10 -41 15 -60 5 -19 13
-46 16 -60 4 -14 10 -34 14 -45 33 -84 111 -339 115 -375 3 -25 8 -74 11 -110
8 -75 23 -140 36 -157 7 -7 6 -13 0 -17 -6 -4 -7 -15 -2 -29 23 -62 34 -106
37 -152 1 -27 3 -50 4 -50 1 0 3 -17 5 -39 2 -21 9 -44 15 -52 7 -7 14 -37 16
-66 2 -29 6 -64 10 -78 3 -14 7 -41 9 -60 2 -19 7 -54 11 -77 l7 -43 309 0
c245 0 308 3 301 12 -4 7 -6 25 -4 40 1 16 -2 28 -7 28 -5 0 -7 11 -4 25 3 16
0 25 -9 25 -7 0 -10 3 -7 6 3 3 -7 41 -22 85 -16 43 -26 79 -23 79 3 0 0 7 -7
15 -7 8 -10 15 -7 15 3 0 1 15 -4 33 -5 17 -12 52 -15 77 -8 65 -22 127 -40
168 -8 21 -17 64 -19 97 -3 52 -10 100 -15 100 -1 0 -3 5 -14 50 -19 81 -37
139 -47 151 -6 7 -8 18 -4 24 3 5 2 10 -4 10 -6 0 -8 7 -5 15 4 8 0 23 -7 32
-8 9 -12 17 -10 17 4 1 -20 84 -36 126 -3 8 -7 21 -9 28 -1 8 -6 21 -10 30 -3
9 -8 30 -10 46 -2 15 -11 44 -20 62 -9 19 -14 37 -11 40 3 3 -4 31 -15 62 -10
32 -21 64 -23 72 -2 8 -12 42 -23 75 -75 225 -90 291 -79 340 3 11 -2 30 -9
42 -8 13 -12 23 -10 23 3 0 -5 28 -18 63 -12 34 -24 85 -25 112 -1 28 -4 63
-6 79 -2 16 2 41 10 55 8 17 11 48 8 88 l-4 62 54 53 c94 91 133 115 352 212
33 15 78 30 100 33 22 3 75 23 117 44 l77 39 128 0 c70 0 142 -2 158 -5 17 -2
62 -7 100 -10 39 -3 81 -8 95 -10 14 -2 48 -7 75 -10 157 -16 478 -59 535 -70
38 -8 110 -19 190 -30 30 -4 109 -16 130 -20 8 -2 38 -6 65 -10 77 -11 84 -12
174 -30 46 -9 96 -18 110 -20 36 -5 219 -43 435 -89 117 -25 142 -24 152 6 5
18 -20 84 -37 98 -4 3 -16 23 -27 45 -11 22 -31 51 -44 65 -12 13 -21 25 -18
25 8 0 -82 125 -91 125 -4 0 -11 9 -14 21 -4 11 -9 18 -12 15 -3 -3 -24 16
-47 41 -22 26 -49 54 -60 62 -10 9 -32 28 -48 44 -16 15 -31 27 -33 27 -2 0
-17 12 -33 27 -15 16 -45 42 -67 58 -21 17 -47 38 -57 48 -10 9 -18 14 -18 10
0 -5 -4 -3 -8 2 -18 26 -170 121 -269 169 -13 6 -23 15 -23 19 0 5 -5 5 -11 2
-5 -4 -18 -1 -27 7 -9 8 -42 25 -72 38 -51 22 -68 24 -250 24 -187 1 -328 -6
-490 -23 -118 -13 -447 -4 -540 14 -14 3 -59 7 -100 10 -104 8 -143 14 -234
37 -141 36 -350 150 -451 247 -42 40 -115 141 -115 159 0 4 -26 36 -57 70 -87
99 -159 136 -283 150 -84 9 -224 9 -273 0 -33 -6 -41 -4 -60 19 -12 14 -27 31
-32 37 -6 6 -21 24 -33 40 -111 144 -371 399 -562 553 -84 68 -227 173 -234
173 -2 0 -35 19 -72 42 -38 23 -122 67 -187 98 l-118 57 -34 69 c-75 154 -280
304 -426 312 -42 3 -50 0 -100 -45z m661 -435 c8 -3 17 -5 20 -5 3 0 24 -12
47 -26 24 -15 45 -27 47 -27 6 0 150 -83 156 -90 3 -3 25 -18 50 -34 146 -94
429 -340 609 -530 31 -33 75 -79 99 -103 23 -24 42 -50 42 -58 0 -18 -7 -19
-24 -2 -8 6 -24 19 -36 27 -21 14 -39 29 -87 70 -12 10 -32 24 -45 31 -12 6
-25 15 -28 19 -5 7 -111 79 -210 142 -67 44 -174 107 -301 180 -89 51 -433
228 -444 229 -2 0 -21 7 -42 15 -20 9 -46 18 -57 20 -25 5 -30 10 -60 67 l-26
48 48 20 c140 62 121 58 177 34 27 -12 57 -24 65 -27z m-55 -256 c245 -113
595 -303 595 -323 0 -14 -14 -11 -86 21 -156 70 -543 194 -621 199 -7 1 -21
20 -31 44 -11 23 -34 57 -52 75 -26 26 -30 35 -21 46 16 19 78 1 216 -62z
m-10 -173 c44 -11 87 -21 95 -23 31 -8 286 -95 315 -107 17 -7 32 -13 35 -13
11 -2 227 -100 255 -116 17 -9 71 -38 120 -65 50 -26 97 -53 105 -59 8 -6 31
-20 50 -30 19 -11 66 -39 103 -63 105 -67 75 -91 -67 -53 -45 12 -88 25 -96
28 -8 3 -26 7 -40 9 -13 2 -30 9 -37 15 -8 6 -16 8 -19 5 -3 -3 -20 1 -38 8
-18 8 -46 17 -62 20 -34 7 -32 7 -104 28 -30 9 -66 19 -80 21 -14 3 -25 5 -25
6 0 1 -11 4 -25 6 -14 3 -61 13 -105 23 -44 11 -96 22 -115 25 -56 9 -92 16
-130 22 -51 10 -57 11 -140 19 -124 11 -140 16 -140 37 0 25 -120 99 -222 137
-37 14 -35 28 5 36 38 9 184 76 212 99 13 10 29 14 45 10 14 -4 61 -15 105
-25z m80 -365 c50 -8 101 -17 115 -19 61 -10 319 -65 335 -71 9 -4 26 -8 38
-9 36 -4 37 -4 37 -18 0 -11 -12 -12 -55 -6 -140 19 -488 28 -600 15 -173 -19
-175 -19 -196 0 -10 9 -19 22 -19 28 1 6 29 32 63 58 l62 47 65 -5 c36 -2 106
-12 155 -20z"/>
</g>
</svg>
